# xmcd
#
# Track frame offsets: 
#        150
#        18080
#        36041
#        52785
#        72136
#        90001
#        109957
#        125080
#        142397
#        157405
#        171000
#        187736
#        205886
#        224749
#        244710
#        259464
#        275053
#        293555
#        310060
#        326834
#
# Disc length: 4588 seconds
#
# Revision: 0
# Processed by: cddbd v1.5.2PL0 Copyright (c) Steve Scherf et al.
# Submitted via: ExactAudioCopy v0.99pb5
#
DISCID=2f11ea14
DTITLE=Various Artist - Da te mogu pismom zvati - Libar VII
DYEAR=2007
DGENRE=country
TTITLE0=Miso Kovac - Ostala si uvijek ista
TTITLE1=Oliver Dragojevic - Molitva za Magdalenu
TTITLE2=Radojka Sverko - Nista nova, nista nova
TTITLE3=Arsen Dedic- Moderato Cantabile
TTITLE4=Doris Dragovic - Da si tu
TTITLE5=Gibonni - Ispod moga pramca (Tempera)
TTITLE6=Hari Roncevic - Moje si more
TTITLE7=Goran Karan - Novi dan
TTITLE8=Vinko Coce - Srce ti je stina
TTITLE9=Zrinka - Srce od zlata
TTITLE10=Ivo Pattiera - Potrosi sam sve zivote
TTITLE11=Mladen Grdovic - Ako odes ti
TTITLE12=Grupa More - Gdje god da podes
TTITLE13=Zorica Kondza and Tedi Spalato - Zar je voljeti grijeh
TTITLE14=Tomislav Ivcic - Najljepsa si
TTITLE15=Zorica Kondza - Vrijeme ljubavi
TTITLE16=Tereza Kesovija - Prijatelji
TTITLE17=Meri Cetinic - Lastavica
TTITLE18=Milo Hrnic - Golubice bijela
TTITLE19=Miso Kovac - Sibenske kale
EXTD=
EXTT0=
EXTT1=
EXTT2=
EXTT3=
EXTT4=
EXTT5=
EXTT6=
EXTT7=
EXTT8=
EXTT9=
EXTT10=
EXTT11=
EXTT12=
EXTT13=
EXTT14=
EXTT15=
EXTT16=
EXTT17=
EXTT18=
EXTT19=
PLAYORDER=
